<svg width="1020" height="581" viewBox="0 0 1020 581" fill="none" xmlns="http://www.w3.org/2000/svg">
<path d="M675 0.999998C675 41 725 41 725 1" stroke="black"/>
<line x1="700.5" y1="31" x2="700.5" y2="550" stroke="black" stroke-dasharray="50 50"/>
<line x1="1.5" y1="14" x2="1.5" y2="565" stroke="black"/>
<line x1="1019.5" y1="14" x2="1019.5" y2="565" stroke="black"/>
<path d="M725 580.125C725 540.125 675 540.125 675 580.125" stroke="black"/>
<line x1="15" y1="0.5" x2="675" y2="0.5" stroke="black"/>
<line x1="1005" y1="579.5" x2="725" y2="579.5" stroke="black"/>
<line x1="725" y1="0.5" x2="1005" y2="0.5" stroke="black"/>
<line x1="675" y1="579.5" x2="14" y2="579.5" stroke="black"/>
<line x1="1005.35" y1="0.646447" x2="1019.5" y2="14.7886" stroke="black"/>
<line x1="14.1319" y1="580.039" x2="1.26456" y2="564.728" stroke="black"/>
<line x1="15.4956" y1="0.353553" x2="1.35351" y2="14.4957" stroke="black"/>
<line x1="1004.65" y1="579.789" x2="1018.79" y2="565.646" stroke="black"/>
</svg>
